<svg width="120" height="120" viewBox="0 0 120 120" fill="none" xmlns="http://www.w3.org/2000/svg">
  <!-- Background -->
  <rect width="120" height="120" fill="none"/>
  
  <!-- Robot head with circular shape and gradient -->
  <circle cx="60" cy="40" r="26" fill="white"/>
  <circle cx="60" cy="40" r="23" fill="#000000"/>
  
  <!-- Robot face (eyes) -->
  <circle cx="50" cy="40" r="5" fill="white"/>
  <circle cx="70" cy="40" r="5" fill="white"/>
  
  <!-- Shiny effect on robot head -->
  <path d="M45 25 Q60 15 75 25 Q85 35 75 55" fill="#919191" opacity="0.3"/>
  
  <!-- Antenna -->
  <line x1="60" y1="15" x2="60" y2="5" stroke="white" stroke-width="2"/>
  <circle cx="60" cy="5" r="2" fill="white"/>
  
  <!-- Headphones -->
  <path d="M35 40 C30 30 30 50 35 40" stroke="white" stroke-width="3" fill="none"/>
  <path d="M85 40 C90 30 90 50 85 40" stroke="white" stroke-width="3" fill="none"/>
  
  <!-- Wavy lines with 3D effect -->
  <path d="M20 60 C30 50 40 70 50 60 C60 50 70 70 80 60 C90 50 100 70 110 60" stroke="white" stroke-width="8" stroke-linecap="round"/>
  <path d="M22 62 C30 52 40 72 50 62 C60 52 70 72 80 62 C90 52 98 72 108 62" stroke="#919191" stroke-width="4" stroke-linecap="round"/>
  
  <path d="M20 80 C30 70 40 90 50 80 C60 70 70 90 80 80 C90 70 100 90 110 80" stroke="white" stroke-width="8" stroke-linecap="round"/>
  <path d="M22 82 C30 72 40 92 50 82 C60 72 70 92 80 82 C90 72 98 92 108 82" stroke="#919191" stroke-width="4" stroke-linecap="round"/>
  
  <path d="M20 100 C30 90 40 110 50 100 C60 90 70 110 80 100 C90 90 100 110 110 100" stroke="white" stroke-width="8" stroke-linecap="round"/>
  <path d="M22 102 C30 92 40 112 50 102 C60 92 70 112 80 102 C90 92 98 112 108 102" stroke="#919191" stroke-width="4" stroke-linecap="round"/>
</svg> 